<?xml version="1.0" encoding="UTF-8" standalone="no"?>
<svg
   xmlns:dc="http://purl.org/dc/elements/1.1/"
   xmlns:cc="http://creativecommons.org/ns#"
   xmlns:rdf="http://www.w3.org/1999/02/22-rdf-syntax-ns#"
   xmlns:svg="http://www.w3.org/2000/svg"
   xmlns="http://www.w3.org/2000/svg"
   xmlns:sodipodi="http://sodipodi.sourceforge.net/DTD/sodipodi-0.dtd"
   xmlns:inkscape="http://www.inkscape.org/namespaces/inkscape"
   version="1.1"
   x="0px"
   y="0px"
   viewBox="0 0 189.12367 377.61282"
   enable-background="new 0 0 100 100"
   xml:space="preserve"
   id="svg2"
   inkscape:version="0.91 r13725"
   sodipodi:docname="car-car2go.svg"
   width="189.12367"
   height="377.61282"><metadata
     id="metadata14"><rdf:RDF><cc:Work
         rdf:about=""><dc:format>image/svg+xml</dc:format><dc:type
           rdf:resource="http://purl.org/dc/dcmitype/StillImage" /><dc:title /><cc:license
           rdf:resource="http://creativecommons.org/licenses/by/3.0/" /><dc:contributor><cc:Agent><dc:title>landmark by Lluisa Iborra from the Noun Project</dc:title></cc:Agent></dc:contributor></cc:Work><cc:License
         rdf:about="http://creativecommons.org/licenses/by/3.0/"><cc:permits
           rdf:resource="http://creativecommons.org/ns#Reproduction" /><cc:permits
           rdf:resource="http://creativecommons.org/ns#Distribution" /><cc:requires
           rdf:resource="http://creativecommons.org/ns#Notice" /><cc:requires
           rdf:resource="http://creativecommons.org/ns#Attribution" /><cc:permits
           rdf:resource="http://creativecommons.org/ns#DerivativeWorks" /></cc:License></rdf:RDF></metadata><defs
     id="defs12" /><sodipodi:namedview
     pagecolor="#ffffff"
     bordercolor="#666666"
     borderopacity="1"
     objecttolerance="10"
     gridtolerance="10"
     guidetolerance="10"
     inkscape:pageopacity="0"
     inkscape:pageshadow="2"
     inkscape:window-width="1920"
     inkscape:window-height="1130"
     id="namedview10"
     showgrid="false"
     inkscape:zoom="1.2336076"
     inkscape:cx="-40.102888"
     inkscape:cy="168.54845"
     inkscape:window-x="0"
     inkscape:window-y="0"
     inkscape:window-maximized="1"
     inkscape:current-layer="svg2"
     fit-margin-top="0"
     fit-margin-left="0"
     fit-margin-right="0"
     fit-margin-bottom="0" /><circle
     style="opacity:1;fill:#ffffff;fill-opacity:1;stroke:none;stroke-width:0.59200001;stroke-miterlimit:4;stroke-dasharray:none;stroke-opacity:1"
     id="path4134"
     cx="96.663132"
     cy="95.568336"
     r="80.243645" /><path
     d="M 184.36254,125.71583 C 201.9413,76.64044 176.30287,22.432415 126.85645,5.2164552 77.781071,-12.362295 23.573041,13.643035 5.9901707,62.71843 c -6.95069995,20.51404 -6.95069995,42.85439 0,62.9974 L 95.368061,377.33025 184.36254,125.71583 Z M 18.815571,94.58198 c 0,-42.48748 34.06089,-76.544255 76.54837,-76.544255 42.120569,0 76.540119,34.060895 76.540119,76.544255 0,42.12057 -34.42368,76.18146 -76.540119,76.18146 -42.48748,0 -76.54837,-34.06089 -76.54837,-76.18146 z"
     id="path4"
     inkscape:connector-curvature="0"
     style="fill:#009ae0;fill-opacity:1" /><path
     inkscape:connector-curvature="0"
     id="path9347"
     style="fill:#000000;fill-opacity:1;fill-rule:evenodd;stroke:none;stroke-width:1.2229712;stroke-linecap:butt;stroke-linejoin:miter;stroke-miterlimit:4;stroke-opacity:1"
     d="m 71.244657,49.219918 c -4.90157,-0.174828 -9.12542,1.424159 -11.730208,7.16685 l -9.404774,23.74112 c -6.852414,1.90465 -9.83545,6.922603 -9.993493,11.039629 l 0,31.086033 9.036821,0 0,10.46093 c -0.437914,9.96975 15.768458,10.35507 16.130887,-0.10386 l 0.191326,-10.26804 58.621614,0 0.19133,10.26804 c 0.36242,10.45893 16.58352,10.07361 16.14561,0.10386 l 0,-10.46093 9.0221,0 0,-31.086033 c -0.15804,-4.117026 -3.14108,-9.134988 -9.99349,-11.039629 l -9.40477,-23.74112 c -2.60479,-5.74268 -6.82864,-7.341667 -11.73021,-7.16685 l -47.082743,0 z m 1.074411,8.235201 c 0.409981,-0.0022 0.842179,0.01174 1.280461,0.02967 l 42.520171,0.133548 c 3.89164,-0.09154 5.54215,1.16e-4 7.19708,3.709549 l 6.77026,18.399373 -70.528436,-0.08903 6.696664,-17.909714 c 1.044254,-3.585128 3.193961,-4.257575 6.0638,-4.273403 z M 57.512806,88.941782 c 4.215079,9e-6 7.63862,3.436681 7.63862,7.686198 0,4.24951 -3.423541,7.70102 -7.63862,7.70102 -4.215079,0 -7.63862,-3.45151 -7.63862,-7.70102 0,-4.249526 3.423541,-7.686198 7.63862,-7.686198 z m 74.973254,0 c 4.21508,-9e-6 7.62391,3.436681 7.62391,7.686198 0,4.24951 -3.40883,7.70102 -7.62391,7.70102 -4.21507,1e-5 -7.63861,-3.45151 -7.63861,-7.70102 0,-4.249517 3.42354,-7.686198 7.63861,-7.686198 z m -5.24655,-10.123191 0,0 z m 0,0 c -0.0378,-0.285412 -0.09,-0.508646 -0.14993,-0.744949 -0.39463,-1.55564 -0.9227,-2.501535 -2.05611,-3.659984 -1.10191,-1.126252 -2.34107,-1.817059 -3.79097,-2.126895 -1.42342,-0.304189 -14.62506,-0.304995 -16.05268,0 -2.71013,0.578975 -5.03314,2.858337 -5.7507,5.635725 -0.0302,0.11704 -0.06084,0.442598 -0.0857,0.863714 l 27.88606,0.03239 z M 113.29648,58.704853 c -2.17294,0.0038 -4.34326,1.143129 -5.46156,3.433267 -0.44779,0.917013 -0.4819,1.06329 -0.4819,2.601939 0,1.520599 0.031,1.698881 0.46048,2.612737 0.77595,1.651058 1.87805,2.632625 3.65175,3.271311 0.55365,0.199361 1.06862,0.261855 2.07753,0.226726 1.20234,-0.04184 1.44974,-0.110369 2.44164,-0.604607 1.27756,-0.636558 2.21533,-1.582567 2.84858,-2.882637 0.37697,-0.773924 0.40693,-0.981558 0.40693,-2.547957 0,-1.628753 -0.0196,-1.741553 -0.48189,-2.688312 -1.11641,-2.286256 -3.28862,-3.426246 -5.46156,-3.422467 z" /></svg>