<?xml version="1.0" encoding="UTF-8" standalone="no"?>
<svg
   xmlns:dc="http://purl.org/dc/elements/1.1/"
   xmlns:cc="http://creativecommons.org/ns#"
   xmlns:rdf="http://www.w3.org/1999/02/22-rdf-syntax-ns#"
   xmlns:svg="http://www.w3.org/2000/svg"
   xmlns="http://www.w3.org/2000/svg"
   xmlns:sodipodi="http://sodipodi.sourceforge.net/DTD/sodipodi-0.dtd"
   xmlns:inkscape="http://www.inkscape.org/namespaces/inkscape"
   version="1.1"
   x="0px"
   y="0px"
   viewBox="0 0 189.12367 377.61282"
   enable-background="new 0 0 100 100"
   xml:space="preserve"
   id="svg2"
   inkscape:version="0.91 r13725"
   sodipodi:docname="station-free-blue.svg"
   width="189.12367"
   height="377.61282"><metadata
     id="metadata14"><rdf:RDF><cc:Work
         rdf:about=""><dc:format>image/svg+xml</dc:format><dc:type
           rdf:resource="http://purl.org/dc/dcmitype/StillImage" /><dc:title></dc:title><cc:license
           rdf:resource="http://creativecommons.org/licenses/by/3.0/" /><dc:contributor><cc:Agent><dc:title>landmark by Lluisa Iborra from the Noun Project</dc:title></cc:Agent></dc:contributor></cc:Work><cc:License
         rdf:about="http://creativecommons.org/licenses/by/3.0/"><cc:permits
           rdf:resource="http://creativecommons.org/ns#Reproduction" /><cc:permits
           rdf:resource="http://creativecommons.org/ns#Distribution" /><cc:requires
           rdf:resource="http://creativecommons.org/ns#Notice" /><cc:requires
           rdf:resource="http://creativecommons.org/ns#Attribution" /><cc:permits
           rdf:resource="http://creativecommons.org/ns#DerivativeWorks" /></cc:License></rdf:RDF></metadata><defs
     id="defs12" /><sodipodi:namedview
     pagecolor="#ffffff"
     bordercolor="#666666"
     borderopacity="1"
     objecttolerance="10"
     gridtolerance="10"
     guidetolerance="10"
     inkscape:pageopacity="0"
     inkscape:pageshadow="2"
     inkscape:window-width="1920"
     inkscape:window-height="1130"
     id="namedview10"
     showgrid="false"
     inkscape:zoom="1.888"
     inkscape:cx="11.704136"
     inkscape:cy="178.92114"
     inkscape:window-x="0"
     inkscape:window-y="0"
     inkscape:window-maximized="1"
     inkscape:current-layer="svg2"
     fit-margin-top="0"
     fit-margin-left="0"
     fit-margin-right="0"
     fit-margin-bottom="0" /><circle
     style="opacity:1;fill:#ffffff;fill-opacity:1;stroke:none;stroke-width:0.59200001;stroke-miterlimit:4;stroke-dasharray:none;stroke-opacity:1"
     id="path4134"
     cx="96.663132"
     cy="95.568336"
     r="80.243645" /><path
     d="M 184.36254,125.71583 C 201.9413,76.64044 176.30287,22.432415 126.85645,5.2164552 77.781071,-12.362295 23.573041,13.643035 5.9901707,62.71843 c -6.95069995,20.51404 -6.95069995,42.85439 0,62.9974 L 95.368061,377.33025 184.36254,125.71583 Z M 18.815571,94.58198 c 0,-42.48748 34.06089,-76.544255 76.54837,-76.544255 42.120569,0 76.540119,34.060895 76.540119,76.544255 0,42.12057 -34.42368,76.18146 -76.540119,76.18146 -42.48748,0 -76.54837,-34.06089 -76.54837,-76.18146 z"
     id="path4"
     inkscape:connector-curvature="0"
     style="fill:#4562a2;fill-opacity:1" /><path
     inkscape:connector-curvature="0"
     style="fill:#00a300;fill-opacity:1;stroke:#00a300;stroke-opacity:1;stroke-width:1;stroke-miterlimit:4;stroke-dasharray:none"
     d="m 93.200461,37.512991 -21.53046,16.65866 0,-5.89495 c 0,-0.42085 -0.34156,-0.76241 -0.76241,-0.76241 l -7.99006,0 c -0.42085,0 -0.76241,0.34156 -0.76241,0.76241 l 0,13.30863 -20.43565,16.02586 c -0.25617,0.20127 -0.35529,0.54131 -0.25007,0.84932 0.10673,0.30802 0.39492,0.51387 0.72124,0.51387 l 10.21172,0 0,56.810229 c 0,0.42237 0.34156,0.76241 0.76241,0.76241 l 81.006079,0 c 0.42085,0 0.76241,-0.34004 0.76241,-0.76241 l 0,-56.811759 10.34591,0 c 0.006,0 0.0107,0 0.0153,0 0.44067,0.0381 0.77766,-0.33546 0.77766,-0.76241 0,-0.30496 -0.17841,-0.57028 -0.43763,-0.69074 L 94.135182,37.512991 c -0.274468,-0.21195 -0.658723,-0.21348 -0.934719,0 z m 40.970389,39.93504 c -0.42085,0 -0.76241,0.34156 -0.76241,0.76241 l 0,56.810229 -79.481259,0 0,-56.810229 c 0,-0.42085 -0.34156,-0.76241 -0.76241,-0.76241 l -8.76772,0 18.99165,-14.89292 c 0.18451,-0.14486 0.29124,-0.36595 0.29124,-0.60078 l 0,-12.91675 6.46524,0 0,6.68634 c 0,0.29124 0.16468,0.55656 0.42695,0.68464 0.26075,0.12961 0.57181,0.0961 0.80206,-0.0808 l 22.291344,-17.24877 49.387395,38.36753 -8.88208,0 z"
     id="path4-6" /></svg>