<svg xmlns="http://www.w3.org/2000/svg" xmlns:xlink="http://www.w3.org/1999/xlink" version="1.1" x="0px" y="0px" viewBox="0 0 100 125" enable-background="new 0 0 100 100" xml:space="preserve"><path fill="#000000" d="M68.616,27.1c0-10.217-8.264-18.479-18.566-18.479c-10.219,0-18.57,8.262-18.57,18.479  c0,10.307,8.352,18.568,18.57,18.568C60.353,45.668,68.616,37.406,68.616,27.1z"/><path fill="#000000" d="M50.05,96.773c0.423,0,0.801-0.267,0.942-0.666l21.586-60.944c2.151-6.052,1.826-12.558-0.916-18.321  C68.92,11.08,64.076,6.721,58.02,4.568c-2.562-0.899-5.229-1.354-7.926-1.354c-10.171,0-19.244,6.433-22.571,15.993  c-1.857,5.101-1.858,10.769-0.003,15.955l21.588,60.945C49.249,96.507,49.626,96.773,50.05,96.773z M29.406,19.878  c3.052-8.771,11.366-14.664,20.687-14.664c2.471,0,4.915,0.417,7.26,1.24c5.55,1.973,9.99,5.967,12.502,11.247  c2.514,5.281,2.811,11.244,0.838,16.793L50.05,92.778L29.403,34.491C27.704,29.74,27.704,24.555,29.406,19.878z"/><text x="0" y="115" fill="#000000" font-size="5px" font-weight="bold" font-family="'Helvetica Neue', Helvetica, Arial-Unicode, Arial, Sans-serif">Created by Lluisa Iborra</text><text x="0" y="120" fill="#000000" font-size="5px" font-weight="bold" font-family="'Helvetica Neue', Helvetica, Arial-Unicode, Arial, Sans-serif">from the Noun Project</text></svg>