<?xml version="1.0" encoding="UTF-8" standalone="no"?>
<svg
   xmlns:dc="http://purl.org/dc/elements/1.1/"
   xmlns:cc="http://creativecommons.org/ns#"
   xmlns:rdf="http://www.w3.org/1999/02/22-rdf-syntax-ns#"
   xmlns:svg="http://www.w3.org/2000/svg"
   xmlns="http://www.w3.org/2000/svg"
   xmlns:sodipodi="http://sodipodi.sourceforge.net/DTD/sodipodi-0.dtd"
   xmlns:inkscape="http://www.inkscape.org/namespaces/inkscape"
   version="1.1"
   x="0px"
   y="0px"
   viewBox="0 0 189.12367 377.61282"
   enable-background="new 0 0 100 100"
   xml:space="preserve"
   id="svg2"
   inkscape:version="0.91 r13725"
   sodipodi:docname="bike-blue.svg"
   width="189.12367"
   height="377.61282"><metadata
     id="metadata14"><rdf:RDF><cc:Work
         rdf:about=""><dc:format>image/svg+xml</dc:format><dc:type
           rdf:resource="http://purl.org/dc/dcmitype/StillImage" /><dc:title /><cc:license
           rdf:resource="http://creativecommons.org/licenses/by/3.0/" /><dc:contributor><cc:Agent><dc:title>landmark by Lluisa Iborra from the Noun Project</dc:title></cc:Agent></dc:contributor></cc:Work><cc:License
         rdf:about="http://creativecommons.org/licenses/by/3.0/"><cc:permits
           rdf:resource="http://creativecommons.org/ns#Reproduction" /><cc:permits
           rdf:resource="http://creativecommons.org/ns#Distribution" /><cc:requires
           rdf:resource="http://creativecommons.org/ns#Notice" /><cc:requires
           rdf:resource="http://creativecommons.org/ns#Attribution" /><cc:permits
           rdf:resource="http://creativecommons.org/ns#DerivativeWorks" /></cc:License></rdf:RDF></metadata><defs
     id="defs12" /><sodipodi:namedview
     pagecolor="#ffffff"
     bordercolor="#666666"
     borderopacity="1"
     objecttolerance="10"
     gridtolerance="10"
     guidetolerance="10"
     inkscape:pageopacity="0"
     inkscape:pageshadow="2"
     inkscape:window-width="1920"
     inkscape:window-height="1103"
     id="namedview10"
     showgrid="false"
     inkscape:zoom="1.888"
     inkscape:cx="149.416"
     inkscape:cy="179.98046"
     inkscape:window-x="0"
     inkscape:window-y="27"
     inkscape:window-maximized="1"
     inkscape:current-layer="svg2"
     fit-margin-top="0"
     fit-margin-left="0"
     fit-margin-right="0"
     fit-margin-bottom="0" /><circle
     style="opacity:1;fill:#ffffff;fill-opacity:1;stroke:none;stroke-width:0.59200001;stroke-miterlimit:4;stroke-dasharray:none;stroke-opacity:1"
     id="path4134"
     cx="96.663132"
     cy="95.568336"
     r="80.243645" /><path
     d="M 184.36254,125.71583 C 201.9413,76.64044 176.30287,22.432415 126.85645,5.2164552 77.781071,-12.362295 23.573041,13.643035 5.9901707,62.71843 c -6.95069995,20.51404 -6.95069995,42.85439 0,62.9974 L 95.368061,377.33025 184.36254,125.71583 Z M 18.815571,94.58198 c 0,-42.48748 34.06089,-76.544255 76.54837,-76.544255 42.120569,0 76.540119,34.060895 76.540119,76.544255 0,42.12057 -34.42368,76.18146 -76.540119,76.18146 -42.48748,0 -76.54837,-34.06089 -76.54837,-76.18146 z"
     id="path4"
     inkscape:connector-curvature="0"
     style="fill:#4562a2;fill-opacity:1" /><path
     inkscape:connector-curvature="0"
     style="fill:#1d1e1c"
     d="m 137.26538,84.858139 c -3.54205,0 -6.8939,0.79706 -9.91809,2.18613 l -9.20001,-16.06292 1.62902,-4.21696 5.28102,0 c 1.17181,0 2.11938,-0.948 2.11938,-2.11982 0,-1.17182 -0.94801,-2.11982 -2.11938,-2.11982 l -23.73295,0 c -1.17181,0 -2.119818,0.948 -2.119818,2.11982 0,1.17182 0.948438,2.11982 2.119818,2.11982 l 13.90777,0 -0.71635,1.85283 -46.401818,0 4.244,-13.35501 14.0465,0 c 1.17181,0 2.11982,-0.94801 2.11982,-2.11982 0,-1.17182 -0.94844,-2.11983 -2.11982,-2.11983 l -15.59699,0 c -0.92314,0 -1.74115,0.59856 -2.02079,1.47807 l -10.46475,32.93295 c -1.65824,-0.36865 -3.37845,-0.57544 -5.14664,-0.57544 -13.13339,0 -23.82019,10.66542 -23.82019,23.774381 0,13.10853 10.68636,23.77395 23.82019,23.77395 13.13382,0 23.8202,-10.66542 23.8202,-23.77395 0,-9.85876 -6.04492,-18.331951 -14.62804,-21.930281 l 1.0082,-3.16948 32.02856,23.399631 c -0.15749,0.54228 -0.26917,1.1055 -0.26917,1.6997 0,2.66035 1.70144,4.91455 4.06994,5.78185 l 0,7.07407 c 0,1.17181 0.948438,2.11982 2.119818,2.11982 l 8.81478,0 c 1.17225,0 2.11982,-0.94844 2.11982,-2.11982 0,-1.17138 -0.94801,-2.11982 -2.11982,-2.11982 l -6.69496,0 0,-4.95382 c 1.70144,-0.62517 3.04341,-1.96233 3.66814,-3.66246 l 6.43843,0 c 1.08107,12.11689 11.29539,21.65456 23.71418,21.65456 13.13339,0 23.82019,-10.66542 23.82019,-23.77395 0,-13.108521 -10.68637,-23.774381 -23.82019,-23.774381 z M 72.755412,108.63252 c 0,10.771 -8.78381,19.53431 -19.58011,19.53431 -10.79631,0 -19.5801,-8.76331 -19.5801,-19.53431 0,-10.771441 8.78379,-19.534741 19.5801,-19.534741 1.32059,0 2.61237,0.13438 3.86096,0.38479 l -4.80286,15.116661 c -1.83843,0.42842 -3.21267,2.06791 -3.21267,4.03286 0,2.28735 1.8633,4.14846 4.15457,4.14846 2.29128,0 4.15457,-1.86111 4.15457,-4.14846 0,-1.05621 -0.40791,-2.00858 -1.05969,-2.74107 l 4.80505,-15.118841 c 6.86946,3.03773 11.68018,9.894101 11.68018,17.860341 z M 123.66257,89.143589 C 118.0417,93.062579 114.1912,99.32912 113.5512,106.5127 l -6.43843,0 c -0.35992,-0.97942 -0.95848,-1.83232 -1.7285,-2.50723 l 10.79414,-27.929391 7.48416,13.06751 z M 117.8035,106.5127 c 0.61078,-5.61432 3.6232,-10.506191 7.97845,-13.667381 l 7.82751,13.667381 -15.80596,0 z m -51.034978,-33.655401 46.107778,0 -11.44024,29.603791 c -0.0371,0 -0.0725,-0.01 -0.11169,-0.01 -1.27128,0 -2.453128,0.3874 -3.436468,1.04529 l -33.15894,-24.223731 2.03956,-6.41532 z m 70.496858,55.309961 c -10.07951,0 -18.39782,-7.63729 -19.46188,-17.41491 l 15.90979,0 c 0.72638,1.20889 2.03911,2.02864 3.55252,2.02864 2.28997,0 4.15327,-1.86112 4.15327,-4.14847 0,-2.26466 -1.82621,-4.10527 -4.08259,-4.14454 l -7.87942,-13.758991 c 2.39555,-1.04355 5.03278,-1.63121 7.80874,-1.63121 10.79632,0 19.58012,8.76287 19.58012,19.534741 -4.4e-4,10.77144 -8.78425,19.53474 -19.58055,19.53474 z"
     id="path9" /></svg>