<svg xmlns="http://www.w3.org/2000/svg" xmlns:xlink="http://www.w3.org/1999/xlink" version="1.1" x="0px" y="0px" viewBox="0 0 100 125" enable-background="new 0 0 100 100" xml:space="preserve"><path fill="#000000" d="M49.467,17.824l-14.12,10.925v-3.866c0-0.276-0.224-0.5-0.5-0.5h-5.24c-0.276,0-0.5,0.224-0.5,0.5v8.728  l-13.402,10.51c-0.168,0.132-0.233,0.355-0.164,0.557c0.07,0.202,0.259,0.337,0.473,0.337h6.697v37.257c0,0.277,0.224,0.5,0.5,0.5  h53.125c0.276,0,0.5-0.223,0.5-0.5V45.014h6.785c0.004,0,0.007,0,0.01,0c0.289,0.025,0.51-0.22,0.51-0.5  c0-0.2-0.117-0.374-0.287-0.453L50.08,17.824C49.9,17.685,49.648,17.684,49.467,17.824z M76.336,44.014c-0.276,0-0.5,0.224-0.5,0.5  v37.257H23.711V44.514c0-0.276-0.224-0.5-0.5-0.5h-5.75l12.455-9.767c0.121-0.095,0.191-0.24,0.191-0.394v-8.471h4.24v4.385  c0,0.191,0.108,0.365,0.28,0.449c0.171,0.085,0.375,0.063,0.526-0.053l14.619-11.312l32.389,25.162H76.336z"/><text x="0" y="115" fill="#000000" font-size="5px" font-weight="bold" font-family="'Helvetica Neue', Helvetica, Arial-Unicode, Arial, Sans-serif">Created by Lluisa Iborra</text><text x="0" y="120" fill="#000000" font-size="5px" font-weight="bold" font-family="'Helvetica Neue', Helvetica, Arial-Unicode, Arial, Sans-serif">from the Noun Project</text></svg>