<?xml version="1.0" encoding="utf-8"?>
<!-- Generator: Adobe Illustrator 16.0.0, SVG Export Plug-In . SVG Version: 6.00 Build 0)  -->
<!DOCTYPE svg PUBLIC "-//W3C//DTD SVG 1.1//EN" "http://www.w3.org/Graphics/SVG/1.1/DTD/svg11.dtd">
<svg version="1.1"
	 id="Layer_1" xmlns:cc="http://creativecommons.org/ns#" xmlns:sodipodi="http://sodipodi.sourceforge.net/DTD/sodipodi-0.dtd" xmlns:inkscape="http://www.inkscape.org/namespaces/inkscape" xmlns:svg="http://www.w3.org/2000/svg" xmlns:dc="http://purl.org/dc/elements/1.1/" xmlns:rdf="http://www.w3.org/1999/02/22-rdf-syntax-ns#" inkscape:version="0.46" sodipodi:docname="20090101024514!Metro-M.svg" sodipodi:version="0.32" inkscape:output_extension="org.inkscape.output.svg.inkscape"
	 xmlns="http://www.w3.org/2000/svg" xmlns:xlink="http://www.w3.org/1999/xlink" x="0px" y="0px" width="400px" height="400px"
	 viewBox="0 0 400 400" enable-background="new 0 0 400 400" xml:space="preserve">
<defs>
	
	
		<inkscape:perspective  inkscape:vp_x="0 : 200 : 1" inkscape:vp_z="400 : 200 : 1" inkscape:vp_y="0 : 1000 : 0" sodipodi:type="inkscape:persp3d" inkscape:persp3d-origin="200 : 133.33333 : 1" id="perspective10">
		</inkscape:perspective>
</defs>
<sodipodi:namedview  gridtolerance="10.0" inkscape:zoom="1.165" borderopacity="1.0" inkscape:cy="200" inkscape:cx="126.90217" guidetolerance="10.0" showgrid="false" bordercolor="#666666" pagecolor="#ffffff" objecttolerance="10.0" inkscape:window-height="942" inkscape:pageshadow="2" inkscape:pageopacity="0.0" inkscape:current-layer="Layer_1" inkscape:window-width="1231" inkscape:window-x="207" inkscape:window-y="0" id="base">
	</sodipodi:namedview>
<circle fill="#FFFFFF" stroke="#000000" stroke-width="9" stroke-miterlimit="10" cx="199.75" cy="200.25" r="189.75"/>
<path fill="#1D1E1C" d="M297.157,185.11c-8.119,0-15.802,1.827-22.734,5.011l-21.088-36.819l3.734-9.666h12.105
	c2.686,0,4.858-2.173,4.858-4.859c0-2.686-2.173-4.859-4.858-4.859h-54.4c-2.686,0-4.859,2.173-4.859,4.859
	c0,2.686,2.174,4.859,4.859,4.859h31.879l-1.642,4.247H138.65l9.728-30.612h32.197c2.686,0,4.859-2.173,4.859-4.859
	c0-2.686-2.174-4.859-4.859-4.859h-35.751c-2.116,0-3.991,1.372-4.632,3.388l-23.987,75.488c-3.801-0.845-7.744-1.319-11.797-1.319
	c-30.104,0-54.6,24.447-54.6,54.495c0,30.047,24.495,54.494,54.6,54.494s54.6-24.447,54.6-54.494
	c0-22.598-13.856-42.02-33.53-50.268l2.311-7.265l73.415,53.636c-0.361,1.243-0.617,2.534-0.617,3.896
	c0,6.098,3.9,11.265,9.329,13.253v16.215c0,2.686,2.174,4.859,4.859,4.859h20.205c2.687,0,4.859-2.174,4.859-4.859
	s-2.173-4.859-4.859-4.859h-15.346v-11.355c3.9-1.433,6.976-4.498,8.408-8.395H242.8c2.478,27.774,25.891,49.636,54.357,49.636
	c30.104,0,54.6-24.447,54.6-54.494C351.757,209.558,327.262,185.11,297.157,185.11z M149.289,239.605
	c0,24.689-20.134,44.776-44.881,44.776s-44.881-20.087-44.881-44.776c0-24.69,20.134-44.777,44.881-44.777
	c3.027,0,5.988,0.308,8.85,0.882l-11.009,34.65c-4.214,0.982-7.364,4.74-7.364,9.244c0,5.243,4.271,9.509,9.523,9.509
	s9.523-4.266,9.523-9.509c0-2.421-0.935-4.604-2.429-6.283l11.014-34.655C138.262,205.629,149.289,221.345,149.289,239.605z
	 M265.977,194.933c-12.884,8.983-21.71,23.347-23.177,39.813h-14.758c-0.825-2.245-2.197-4.2-3.962-5.747l24.742-64.019
	L265.977,194.933z M252.547,234.746c1.4-12.869,8.305-24.082,18.288-31.328l17.942,31.328H252.547z M135.566,157.602h105.687
	l-26.223,67.857c-0.085,0-0.166-0.023-0.256-0.023c-2.914,0-5.623,0.888-7.877,2.396l-76.006-55.525L135.566,157.602z
	 M297.157,284.382c-23.104,0-42.171-17.506-44.61-39.918h36.468c1.665,2.771,4.674,4.65,8.143,4.65c5.249,0,9.52-4.266,9.52-9.509
	c0-5.191-4.186-9.41-9.358-9.5l-18.061-31.538c5.491-2.392,11.536-3.739,17.899-3.739c24.747,0,44.881,20.086,44.881,44.777
	C342.038,264.295,321.904,284.382,297.157,284.382z"/>
</svg>
